<svg xmlns="http://www.w3.org/2000/svg" width="124" height="124" fill="none"><path fill="#DB3232" d="M62 0C27.75 0 0 27.75 0 62s27.75 62 62 62 62-27.75 62-62S96.25 0 62 0m54 62c0 29.75-24.25 54-54 54S8 92 8 62C8 32.5 32 8 62 8c29.5 0 54 24.25 54 54"/><path fill="#DB3232" stroke="#fff" stroke-width="4" d="m73.741 61.913 18.823-18.648.007-.007c1.906-1.906 1.906-5.235 0-7.141l-4.688-4.687c-1.906-1.907-5.235-1.907-7.141 0l-.007.006L62.088 50.26 43.259 31.43c-1.906-1.905-5.235-1.905-7.141 0l-4.687 4.688c-1.907 1.906-1.907 5.235 0 7.141l.006.006L50.26 61.914 31.43 80.743c-1.905 1.906-1.905 5.235 0 7.141l4.688 4.688c1.906 1.906 5.235 1.906 7.141 0l18.83-18.83 18.648 18.823.006.007c1.906 1.906 5.235 1.906 7.141 0l4.688-4.688c1.906-1.906 1.906-5.235 0-7.141z"/></svg>