<svg width="415" height="228" viewBox="0 0 415 228" fill="none" xmlns="http://www.w3.org/2000/svg">
<g opacity="0.15">
<path opacity="0.15" d="M90 109C94.4183 109 98 105.418 98 101C98 96.5817 94.4183 93 90 93C85.5817 93 82 96.5817 82 101C82 105.418 85.5817 109 90 109Z" fill="white"/>
<path opacity="0.15" d="M90 107.5C93.5899 107.5 96.5 104.59 96.5 101C96.5 97.4101 93.5899 94.5 90 94.5C86.4101 94.5 83.5 97.4101 83.5 101C83.5 104.59 86.4101 107.5 90 107.5Z" stroke="#777777" stroke-width="3"/>
</g>
<g opacity="0.3">
<path opacity="0.3" d="M409 145C412.314 145 415 142.314 415 139C415 135.686 412.314 133 409 133C405.686 133 403 135.686 403 139C403 142.314 405.686 145 409 145Z" fill="white"/>
<path opacity="0.3" d="M409 144C411.761 144 414 141.761 414 139C414 136.239 411.761 134 409 134C406.239 134 404 136.239 404 139C404 141.761 406.239 144 409 144Z" stroke="#777777" stroke-width="2"/>
</g>
<g opacity="0.15">
<path opacity="0.15" d="M106 18C109.314 18 112 15.3137 112 12C112 8.68629 109.314 6 106 6C102.686 6 100 8.68629 100 12C100 15.3137 102.686 18 106 18Z" fill="white"/>
<path opacity="0.15" d="M106 17C108.761 17 111 14.7614 111 12C111 9.23858 108.761 7 106 7C103.239 7 101 9.23858 101 12C101 14.7614 103.239 17 106 17Z" stroke="#777777" stroke-width="2"/>
</g>
<g opacity="0.3">
<path opacity="0.3" d="M361 42C365.418 42 369 38.4183 369 34C369 29.5817 365.418 26 361 26C356.582 26 353 29.5817 353 34C353 38.4183 356.582 42 361 42Z" fill="white"/>
<path opacity="0.3" d="M361 40.5C364.59 40.5 367.5 37.5899 367.5 34C367.5 30.4101 364.59 27.5 361 27.5C357.41 27.5 354.5 30.4101 354.5 34C354.5 37.5899 357.41 40.5 361 40.5Z" stroke="#777777" stroke-width="3"/>
</g>
<g opacity="0.15">
<path opacity="0.15" d="M336 192C338.209 192 340 190.209 340 188C340 185.791 338.209 184 336 184C333.791 184 332 185.791 332 188C332 190.209 333.791 192 336 192Z" fill="white"/>
<path opacity="0.15" d="M336 191.5C337.933 191.5 339.5 189.933 339.5 188C339.5 186.067 337.933 184.5 336 184.5C334.067 184.5 332.5 186.067 332.5 188C332.5 189.933 334.067 191.5 336 191.5Z" stroke="#777777"/>
</g>
<g opacity="0.3">
<path opacity="0.3" d="M4 91C6.20914 91 8 89.2091 8 87C8 84.7909 6.20914 83 4 83C1.79086 83 0 84.7909 0 87C0 89.2091 1.79086 91 4 91Z" fill="white"/>
<path opacity="0.3" d="M4 90.5C5.933 90.5 7.5 88.933 7.5 87C7.5 85.067 5.933 83.5 4 83.5C2.067 83.5 0.5 85.067 0.5 87C0.5 88.933 2.067 90.5 4 90.5Z" stroke="#777777"/>
</g>
<g opacity="0.15">
<path opacity="0.15" d="M231 8C233.209 8 235 6.20914 235 4C235 1.79086 233.209 0 231 0C228.791 0 227 1.79086 227 4C227 6.20914 228.791 8 231 8Z" fill="white"/>
<path opacity="0.15" d="M231 7.5C232.933 7.5 234.5 5.933 234.5 4C234.5 2.067 232.933 0.5 231 0.5C229.067 0.5 227.5 2.067 227.5 4C227.5 5.933 229.067 7.5 231 7.5Z" stroke="#777777"/>
</g>
<g opacity="0.3">
<path opacity="0.3" d="M33 26C35.2091 26 37 24.2091 37 22C37 19.7909 35.2091 18 33 18C30.7909 18 29 19.7909 29 22C29 24.2091 30.7909 26 33 26Z" fill="white"/>
<path opacity="0.3" d="M33 25.5C34.933 25.5 36.5 23.933 36.5 22C36.5 20.067 34.933 18.5 33 18.5C31.067 18.5 29.5 20.067 29.5 22C29.5 23.933 31.067 25.5 33 25.5Z" stroke="#777777"/>
</g>
<path opacity="0.3" d="M344.444 98.4732L340.207 96.6576L339.291 92.1084C339.145 91.3251 338.127 91.0197 337.57 91.6471L334.532 95.1359L329.924 94.5801C329.107 94.4904 328.546 95.3755 328.966 96.1028L331.302 100.062L329.373 104.237C329.042 104.989 329.726 105.82 330.517 105.644L335.03 104.621L338.396 107.756C338.993 108.304 340 107.927 340.09 107.11L340.509 102.531L344.512 100.271C345.24 99.8513 345.197 98.8044 344.444 98.4732ZM339.077 101.596L338.684 105.957L335.467 102.991L331.168 103.941L333.009 99.9696L330.753 96.1938L335.111 96.7151L338.033 93.4214L338.885 97.7268L342.919 99.4556L339.077 101.596Z" fill="#777777"/>
<path opacity="0.5" d="M185.046 25.5872L180.468 26.1349L177.399 22.6542C176.881 22.0489 175.847 22.2939 175.679 23.1155L174.793 27.6566L170.525 29.4803C169.773 29.8115 169.73 30.8584 170.457 31.2782L174.461 33.5377L174.88 38.1172C174.969 38.9344 175.976 39.3116 176.574 38.7632L179.97 35.6199L184.453 36.6507C185.244 36.8268 185.927 35.9964 185.596 35.2439L183.668 31.0691L186.004 27.1099C186.424 26.3826 185.863 25.4975 185.046 25.5872ZM181.961 30.9768L183.802 34.9484L179.533 33.9898L176.285 36.9637L175.893 32.6036L172.051 30.4627L176.085 28.7339L176.967 24.4204L179.858 27.7222L184.216 27.2009L181.961 30.9768Z" fill="#777777"/>
<path opacity="0.1" d="M70.0455 49.5872L65.4682 50.1349L62.3994 46.6542C61.8811 46.0489 60.8467 46.2939 60.6787 47.1155L59.7929 51.6566L55.5254 53.4803C54.7729 53.8115 54.73 54.8584 55.4573 55.2782L59.4607 57.5377L59.8796 62.1172C59.9693 62.9344 60.9764 63.3116 61.5736 62.7632L64.9697 59.6199L69.4525 60.6507C70.2439 60.8268 70.9273 59.9964 70.5961 59.2439L68.6679 55.0691L71.0039 51.1099C71.4237 50.3826 70.8628 49.4975 70.0455 49.5872ZM66.9605 54.9768L68.8019 58.9484L64.5326 57.9898L61.2853 60.9637L60.8928 56.6036L57.0507 54.4627L61.0849 52.7339L61.9669 48.4204L64.8583 51.7222L69.2163 51.2009L66.9605 54.9768Z" fill="#777777"/>
<path opacity="0.5" d="M30.4257 143.406L27.5649 143.749L25.6469 141.573C25.323 141.195 24.6764 141.348 24.5714 141.862L24.0179 144.7L21.3506 145.84C20.8803 146.047 20.8535 146.701 21.3081 146.963L23.8102 148.376L24.072 151.238C24.128 151.749 24.7575 151.984 25.1307 151.641L27.2533 149.677L30.0551 150.321C30.5497 150.431 30.9768 149.912 30.7698 149.442L29.5647 146.833L31.0247 144.358C31.2871 143.904 30.9365 143.35 30.4257 143.406ZM28.4976 146.775L29.6485 149.257L26.9801 148.658L24.9505 150.517L24.7053 147.792L22.3039 146.454L24.8253 145.373L25.3766 142.677L27.1837 144.741L29.9074 144.415L28.4976 146.775Z" fill="#777777"/>
<path opacity="0.3" d="M292.666 16.8347L290.017 15.6999L289.445 12.8567C289.353 12.3671 288.717 12.1762 288.369 12.5684L286.47 14.7489L283.59 14.4015C283.08 14.3454 282.729 14.8986 282.991 15.3532L284.451 17.8277L283.246 20.4369C283.039 20.9072 283.466 21.4262 283.961 21.3162L286.782 20.677L288.885 22.6365C289.259 22.9792 289.888 22.7435 289.944 22.2327L290.206 19.3705L292.708 17.9584C293.163 17.696 293.136 17.0417 292.666 16.8347ZM289.311 18.7867L289.066 21.5118L287.055 19.6582L284.368 20.2522L285.519 17.77L284.109 15.4101L286.832 15.7359L288.658 13.6773L289.191 16.3682L291.712 17.4487L289.311 18.7867Z" fill="#777777"/>
<g clip-path="url(#clip0)">
<path d="M269.481 194.85L268.778 193.753C267.625 193.837 266.5 193.837 265.347 193.753L264.644 194.878C263.013 197.466 259.834 198.647 256.909 197.719C253.028 196.509 250.441 195.244 247.263 192.628C244.731 190.547 244.113 186.919 245.744 184.078L246.447 182.869C245.8 181.912 245.238 180.928 244.731 179.887H242.172C238.909 179.887 236.153 177.581 235.534 174.375C234.803 170.522 234.775 167.569 235.563 163.547C236.153 160.369 238.966 158.062 242.2 158.062H244.731C245.238 157.022 245.8 156.037 246.447 155.081L245.716 153.816C244.084 151.003 244.703 147.431 247.178 145.294C250.159 142.734 252.719 141.272 256.6 139.95C259.638 138.909 262.984 140.147 264.616 142.931L265.347 144.169C266.5 144.084 267.625 144.084 268.778 144.169L269.509 142.931C271.141 140.147 274.488 138.909 277.553 139.978C281.294 141.244 283.825 142.678 286.975 145.35C289.45 147.459 290.041 151.031 288.409 153.844L287.678 155.081C288.325 156.037 288.888 157.022 289.394 158.062H290.828C294.091 158.062 296.847 160.369 297.466 163.575C298.197 167.428 298.225 170.381 297.438 174.403C296.847 177.581 294.034 179.887 290.8 179.887H289.394C288.888 180.928 288.325 181.912 287.678 182.869L288.381 184.078C290.041 186.947 289.366 190.575 286.834 192.656C283.825 195.131 281.238 196.425 277.272 197.691C274.319 198.591 271.113 197.437 269.481 194.85ZM272.913 185.119L275.894 190.266C277.778 189.478 279.522 188.466 281.153 187.228L278.172 182.081L279.972 179.972C281.322 178.369 282.391 176.569 283.066 174.6L283.994 171.984H289.928C290.181 169.987 290.181 167.934 289.928 165.937H283.994L283.066 163.322C282.363 161.353 281.322 159.553 279.972 157.95L278.172 155.841L281.153 150.694C279.55 149.456 277.778 148.444 275.894 147.656L272.913 152.803L270.184 152.297C268.131 151.903 266.022 151.903 263.969 152.297L261.241 152.803L258.259 147.656C256.375 148.444 254.631 149.456 253 150.694L255.981 155.841L254.181 157.95C252.831 159.553 251.763 161.353 251.088 163.322L250.159 165.937H244.225C243.972 167.934 243.972 169.987 244.225 171.984H250.159L251.088 174.6C251.791 176.569 252.831 178.369 254.181 179.972L255.981 182.081L253 187.228C254.603 188.466 256.375 189.478 258.259 190.266L261.241 185.119L263.969 185.625C266.022 186.019 268.131 186.019 270.184 185.625L272.913 185.119ZM275.5 168.75C275.5 163.772 271.478 159.75 266.5 159.75C261.522 159.75 257.5 163.772 257.5 168.75C257.5 173.728 261.522 177.75 266.5 177.75C271.478 177.75 275.5 173.728 275.5 168.75Z" fill="#A0A5AA"/>
<path d="M269.481 109.238L268.778 108.141C267.625 108.225 266.5 108.225 265.347 108.141L264.644 109.266C263.013 111.853 259.834 113.034 256.909 112.106C253.028 110.897 250.441 109.631 247.263 107.016C244.731 104.934 244.113 101.306 245.744 98.4657L246.447 97.2563C245.8 96.3 245.238 95.3157 244.731 94.275H242.172C238.909 94.275 236.153 91.9688 235.534 88.7625C234.803 84.9094 234.775 81.9563 235.563 77.9344C236.153 74.7563 238.966 72.45 242.2 72.45H244.731C245.238 71.4094 245.8 70.425 246.447 69.4688L245.716 68.2032C244.084 65.3907 244.703 61.8188 247.178 59.6813C250.159 57.1219 252.719 55.6594 256.6 54.3375C259.638 53.2969 262.984 54.5344 264.616 57.3188L265.347 58.5563C266.5 58.4719 267.625 58.4719 268.778 58.5563L269.509 57.3188C271.141 54.5344 274.488 53.2969 277.553 54.3657C281.294 55.6313 283.825 57.0657 286.975 59.7375C289.45 61.8469 290.041 65.4188 288.409 68.2313L287.678 69.4688C288.325 70.425 288.888 71.4094 289.394 72.45H290.828C294.091 72.45 296.847 74.7563 297.466 77.9625C298.197 81.8157 298.225 84.7688 297.438 88.7907C296.847 91.9688 294.034 94.275 290.8 94.275H289.394C288.888 95.3157 288.325 96.3 287.678 97.2563L288.381 98.4657C290.041 101.334 289.366 104.963 286.834 107.044C283.825 109.519 281.238 110.813 277.272 112.078C274.319 113.006 271.113 111.853 269.481 109.238ZM272.913 99.5344L275.894 104.681C277.778 103.894 279.522 102.881 281.153 101.644L278.172 96.4969L279.972 94.3875C281.322 92.7844 282.391 90.9844 283.066 89.0157L283.994 86.4H289.928C290.181 84.4032 290.181 82.35 289.928 80.3532H283.994L283.066 77.7375C282.363 75.7688 281.322 73.9688 279.972 72.3657L278.172 70.2563L281.125 65.0813C279.522 63.8438 277.75 62.8313 275.866 62.0438L272.884 67.1907L270.156 66.6844C268.103 66.2907 265.994 66.2907 263.941 66.6844L261.213 67.1907L258.231 62.0438C256.375 62.8032 254.603 63.8438 253 65.0813L255.981 70.2282L254.181 72.3375C252.831 73.9407 251.763 75.7407 251.088 77.7094L250.159 80.325H244.225C243.972 82.3219 243.972 84.375 244.225 86.3719H250.159L251.088 88.9875C251.791 90.9563 252.831 92.7563 254.181 94.3594L255.981 96.4688L253 101.644C254.603 102.881 256.375 103.894 258.259 104.681L261.241 99.5344L263.969 100.041C266.022 100.434 268.131 100.434 270.184 100.041L272.913 99.5344ZM275.5 83.1657C275.5 78.1875 271.478 74.1657 266.5 74.1657C261.522 74.1657 257.5 78.1875 257.5 83.1657C257.5 88.1438 261.522 92.1657 266.5 92.1657C271.478 92.1657 275.5 88.1157 275.5 83.1657Z" fill="#00A0D2"/>
<path d="M158.866 181.8V172.912C155.237 171.366 151.806 169.369 148.628 166.978L140.894 171.45C138.137 173.025 134.678 172.491 132.541 170.156C125.734 162.759 121.712 156.234 118.309 145.378C117.353 142.369 118.619 139.106 121.347 137.503L129.025 133.031C128.547 129.094 128.547 125.128 129.025 121.191L121.347 116.747C118.619 115.172 117.353 111.881 118.309 108.872C121.712 98.0718 125.678 91.5468 132.541 84.0937C134.678 81.7593 138.166 81.225 140.894 82.8L148.6 87.2719C151.778 84.8812 155.209 82.9125 158.837 81.3375V72.45C158.837 69.2718 161.031 66.5437 164.125 65.8687C173.884 63.675 181.562 63.4218 192.728 65.8687C195.822 66.5437 198.044 69.3 198.044 72.45V81.3375C201.672 82.8843 205.103 84.8812 208.281 87.2437L215.987 82.8C218.744 81.225 222.231 81.7593 224.369 84.0937C231.934 92.4187 236.041 99.8156 239.022 108.984C239.978 111.937 238.797 115.144 236.153 116.775L229.122 121.219C229.6 125.156 229.6 129.122 229.122 133.059L237.025 137.981C239.444 139.5 240.681 142.369 240.062 145.153C238.122 153.956 230.781 163.322 224.341 170.241C222.203 172.547 218.744 173.053 216.016 171.478L208.281 167.006C205.103 169.397 201.672 171.366 198.044 172.941V181.828C198.044 184.978 195.85 187.734 192.756 188.409C182.209 190.744 174.503 190.716 164.097 188.409C161.059 187.706 158.866 184.95 158.866 181.8ZM167.866 180.056C174.841 181.462 182.069 181.462 189.044 180.056V166.641L192.053 165.572C196.778 163.912 201.137 161.381 204.962 158.119L207.381 156.037L219.025 162.759C223.75 157.387 228.587 151.144 230.866 144.422L219.222 137.7L219.812 134.578C220.712 129.628 220.712 124.594 219.812 119.644L219.222 116.522L230.866 109.8C228.587 103.078 223.75 96.8062 219.025 91.4625L207.381 98.1843L204.962 96.1031C201.137 92.8125 196.806 90.3093 192.053 88.65L189.044 87.5812V74.1937C182.069 72.7875 174.841 72.7875 167.866 74.1937V87.6093L164.856 88.6781C160.131 90.3375 155.772 92.8687 151.947 96.1312L149.528 98.2125L137.884 91.4906C133.175 96.844 129.572 103.076 127.281 109.828L138.925 116.55L138.334 119.672C137.434 124.622 137.434 129.656 138.334 134.606L138.925 137.728L127.281 144.45C129.559 151.172 133.159 157.444 137.884 162.787L149.528 156.066L151.947 158.147C155.772 161.437 160.103 163.941 164.856 165.6L167.866 166.669V180.056ZM178.666 150.441C165.812 150.441 155.35 139.978 155.35 127.125C155.35 114.272 165.812 103.809 178.666 103.809C191.519 103.809 201.981 114.272 201.981 127.125C201.981 139.978 191.519 150.441 178.666 150.441ZM178.666 112.809C170.791 112.809 164.35 119.222 164.35 127.125C164.35 135.028 170.762 141.441 178.666 141.441C186.541 141.441 192.981 135.028 192.981 127.125C192.981 119.222 186.569 112.809 178.666 112.809Z" fill="#0073AA"/>
</g>
<path d="M208 228C257.706 228 298 225.314 298 222C298 218.686 257.706 216 208 216C158.294 216 118 218.686 118 222C118 225.314 158.294 228 208 228Z" fill="url(#paint0_radial)"/>
<defs>
<radialGradient id="paint0_radial" cx="0" cy="0" r="1" gradientUnits="userSpaceOnUse" gradientTransform="translate(208 222) scale(90 6)">
<stop stop-color="#DDDDDD"/>
<stop offset="1" stop-color="white"/>
</radialGradient>
<clipPath id="clip0">
<rect width="180" height="144" fill="white" transform="translate(118 54)"/>
</clipPath>
</defs>
</svg>
