<svg xmlns="http://www.w3.org/2000/svg" width="415" height="228"><defs><radialGradient id="a" cx=".5" cy=".5" r=".5" gradientUnits="objectBoundingBox"><stop offset="0" stop-color="#ddd"/><stop offset="1" stop-color="#fff"/></radialGradient></defs><g fill="#fff" stroke="#777"><g stroke-width="3" data-name="Ellipse 9" opacity=".15" transform="translate(82 93)"><circle cx="8" cy="8" r="8" stroke="none"/><circle cx="8" cy="8" r="6.5" fill="none"/><animate attributeName="opacity" dur="1s" repeatCount="indefinite" values="0;0.25;0"/></g><g stroke-width="2" data-name="Ellipse 13" opacity=".3" transform="translate(403 133)"><circle cx="6" cy="6" r="6" stroke="none"/><circle cx="6" cy="6" r="5" fill="none"/><animate attributeName="opacity" dur="1.3s" repeatCount="indefinite" values="0;0.6;0"/></g><g stroke-width="2" data-name="Ellipse 14" opacity=".15" transform="translate(100 6)"><circle cx="6" cy="6" r="6" stroke="none"/><circle cx="6" cy="6" r="5" fill="none"/><animate attributeName="opacity" dur="1.6s" repeatCount="indefinite" values="0;0.25;0"/></g><g stroke-width="3" data-name="Ellipse 10" opacity=".3" transform="translate(353 26)"><circle cx="8" cy="8" r="8" stroke="none"/><circle cx="8" cy="8" r="6.5" fill="none"/><animate attributeName="opacity" dur="1.9s" repeatCount="indefinite" values="0;0.6;0"/></g><g data-name="Ellipse 11" opacity=".15" transform="translate(332 184)"><circle cx="4" cy="4" r="4" stroke="none"/><circle cx="4" cy="4" r="3.5" fill="none"/><animate attributeName="opacity" dur="2.2s" repeatCount="indefinite" values="0;0.25;0"/></g><g data-name="Ellipse 16" opacity=".3" transform="translate(0 83)"><circle cx="4" cy="4" r="4" stroke="none"/><circle cx="4" cy="4" r="3.5" fill="none"/><animate attributeName="opacity" dur="2.5s" repeatCount="indefinite" values="0;0.6;0"/></g><g data-name="Ellipse 15" opacity=".15" transform="translate(227)"><circle cx="4" cy="4" r="4" stroke="none"/><circle cx="4" cy="4" r="3.5" fill="none"/><animate attributeName="opacity" dur="2.8s" repeatCount="indefinite" values="0;0.25;0"/></g><g data-name="Ellipse 12" opacity=".3" transform="translate(29 18)"><circle cx="4" cy="4" r="4" stroke="none"/><circle cx="4" cy="4" r="3.5" fill="none"/><animate attributeName="opacity" dur="3.1s" repeatCount="indefinite" values="0;0.6;0"/></g></g><g fill="#777"><path d="m343.93 100.391-4.236-1.824-.896-4.525a1 1 0 0 0-1.733-.464l-3.046 3.467-4.579-.539a1 1 0 0 0-.976 1.505l2.354 3.964-1.932 4.19a1 1 0 0 0 1.128 1.393l4.501-1.016 3.39 3.132a1 1 0 0 0 1.673-.642l.423-4.595 4.021-2.254a1 1 0 0 0-.092-1.792m-5.35 3.122-.403 4.37-3.223-2.976-4.28.964 1.835-3.986-2.246-3.77 4.36.516 2.899-3.303.858 4.307 4.03 1.738Z" data-name="Path 510" opacity=".3"><animate attributeName="opacity" dur="1.5s" repeatCount="indefinite" values="0;0.6;0"/></path><path d="m185.56 27.505-4.58.54-3.04-3.47a1 1 0 0 0-1.733.465l-.902 4.526-4.235 1.824a1 1 0 0 0-.092 1.792l4.021 2.254.423 4.595a1 1 0 0 0 1.674.642l3.389-3.132 4.501 1.016a1 1 0 0 0 1.128-1.393l-1.932-4.19 2.354-3.964a1 1 0 0 0-.976-1.505m-3.071 5.38 1.838 3.985-4.28-.964-3.224 2.976-.405-4.37-3.83-2.14 4.033-1.735.857-4.31 2.898 3.3 4.36-.512Z" data-name="Path 509" opacity=".5"><animate attributeName="opacity" dur="1.7s" repeatCount="indefinite" values="0;0.4;0"/></path><path d="m70.56 51.505-4.58.54-3.04-3.47a1 1 0 0 0-1.733.465l-.902 4.526-4.235 1.824a1 1 0 0 0-.092 1.792l4.021 2.254.423 4.595a1 1 0 0 0 1.674.642l3.389-3.132 4.501 1.016a1 1 0 0 0 1.128-1.393l-1.932-4.19 2.354-3.964a1 1 0 0 0-.976-1.505m-3.071 5.38 1.838 3.985-4.28-.964-3.224 2.976-.405-4.37-3.83-2.14 4.033-1.735.857-4.31 2.898 3.3 4.36-.512Z" data-name="Path 508" opacity=".1"><animate attributeName="opacity" dur="1.9s" repeatCount="indefinite" values="0;0.25;0"/></path><path d="m30.684 144.364-2.864.337-1.9-2.166a.626.626 0 0 0-1.084.29l-.563 2.827-2.648 1.141a.625.625 0 0 0-.058 1.12l2.515 1.408.264 2.872a.625.625 0 0 0 1.046.401l2.119-1.957 2.813.635a.625.625 0 0 0 .705-.87l-1.207-2.62 1.472-2.478a.625.625 0 0 0-.61-.94m-1.92 3.362 1.147 2.488-2.675-.6-2.015 1.861-.252-2.728-2.394-1.343 2.52-1.085.536-2.692 1.811 2.063 2.725-.322Z" data-name="Path 507" opacity=".5"><animate attributeName="opacity" dur="2.1s" repeatCount="indefinite" values="0;0.4;0"/></path><path d="m292.41 17.793-2.648-1.14-.562-2.827a.626.626 0 0 0-1.083-.29l-1.902 2.165-2.864-.337a.625.625 0 0 0-.61.94l1.472 2.478-1.207 2.62a.625.625 0 0 0 .705.87l2.813-.635 2.12 1.957a.625.625 0 0 0 1.045-.4l.264-2.873 2.515-1.409a.625.625 0 0 0-.058-1.119m-3.343 1.951-.253 2.728-2.015-1.858-2.676.603 1.146-2.488-1.401-2.36 2.725.32 1.81-2.062.537 2.692 2.52 1.085Z" data-name="Path 506" opacity=".3"><animate attributeName="opacity" dur="2.3s" repeatCount="indefinite" values="0;0.6;0"/></path></g><ellipse cx="80" cy="6" fill="url(#a)" data-name="shadow" rx="100" ry="6" transform="translate(128 216)"/><g><path fill="#A0A5AA" d="m269.481 194.85-.703-1.097a23.4 23.4 0 0 1-3.431 0l-.703 1.125a6.744 6.744 0 0 1-7.735 2.841c-3.881-1.21-6.468-2.475-9.646-5.091-2.532-2.081-3.15-5.709-1.519-8.55l.703-1.209a24 24 0 0 1-1.716-2.982h-2.559c-3.263 0-6.019-2.306-6.638-5.512-.731-3.853-.759-6.806.029-10.828.59-3.178 3.403-5.485 6.637-5.485h2.531a24 24 0 0 1 1.716-2.981l-.731-1.265c-1.632-2.813-1.013-6.385 1.462-8.522 2.981-2.56 5.541-4.022 9.422-5.344a6.75 6.75 0 0 1 8.016 2.981l.731 1.238a23 23 0 0 1 3.431 0l.731-1.238a6.725 6.725 0 0 1 8.044-2.953c3.741 1.266 6.272 2.7 9.422 5.372 2.475 2.109 3.066 5.681 1.434 8.494l-.731 1.237c.647.956 1.21 1.941 1.716 2.981h1.434c3.263 0 6.019 2.307 6.638 5.513.731 3.853.759 6.806-.028 10.828-.591 3.178-3.404 5.484-6.638 5.484h-1.406a24 24 0 0 1-1.716 2.982l.703 1.209a6.74 6.74 0 0 1-1.547 8.578c-3.009 2.475-5.596 3.769-9.562 5.035-2.953.9-6.159-.254-7.791-2.841m3.432-9.731 2.981 5.147a24 24 0 0 0 5.259-3.038l-2.981-5.147 1.8-2.109c1.35-1.603 2.419-3.403 3.094-5.372l.928-2.616h5.934c.253-1.997.253-4.05 0-6.047h-5.934l-.928-2.615a17.4 17.4 0 0 0-3.094-5.372l-1.8-2.109 2.981-5.147a23.3 23.3 0 0 0-5.259-3.038l-2.981 5.147-2.729-.506a16.5 16.5 0 0 0-6.215 0l-2.728.506-2.982-5.147a24 24 0 0 0-5.259 3.038l2.981 5.147-1.8 2.109c-1.35 1.603-2.418 3.403-3.093 5.372l-.929 2.615h-5.934a24.2 24.2 0 0 0 0 6.047h5.934l.929 2.616a17.4 17.4 0 0 0 3.093 5.372l1.8 2.109-2.981 5.147a23.3 23.3 0 0 0 5.259 3.038l2.982-5.147 2.728.506c2.053.394 4.162.394 6.215 0zm2.587-16.369c0-4.978-4.022-9-9-9a8.99 8.99 0 0 0-9 9c0 4.978 4.022 9 9 9s9-4.022 9-9"/><animateTransform additive="sum" attributeName="transform" attributeType="xml" dur="2s" from="360 266.5 169" repeatCount="indefinite" to="0 266.5 169" type="rotate"/></g><g><path fill="#00A0D2" d="m269.481 109.237-.703-1.096a23.4 23.4 0 0 1-3.431 0l-.703 1.125a6.745 6.745 0 0 1-7.735 2.84c-3.881-1.209-6.468-2.475-9.646-5.09-2.532-2.082-3.15-5.71-1.519-8.55l.703-1.21a24 24 0 0 1-1.716-2.981h-2.559c-3.263 0-6.019-2.306-6.638-5.513-.731-3.853-.759-6.806.029-10.828.59-3.178 3.403-5.484 6.637-5.484h2.531a24 24 0 0 1 1.716-2.981l-.731-1.266c-1.632-2.812-1.013-6.384 1.462-8.522 2.981-2.56 5.541-4.022 9.422-5.343a6.75 6.75 0 0 1 8.016 2.98l.731 1.238a23 23 0 0 1 3.431 0l.731-1.237a6.725 6.725 0 0 1 8.044-2.953c3.741 1.265 6.272 2.7 9.422 5.371 2.475 2.11 3.066 5.682 1.434 8.494l-.731 1.238a24 24 0 0 1 1.716 2.981h1.434c3.263 0 6.019 2.306 6.638 5.513.731 3.853.759 6.806-.028 10.828-.591 3.178-3.404 5.484-6.638 5.484h-1.406a24 24 0 0 1-1.716 2.981l.703 1.21a6.74 6.74 0 0 1-1.547 8.578c-3.009 2.475-5.596 3.768-9.562 5.034-2.953.928-6.159-.225-7.791-2.841m3.432-9.703 2.981 5.147a24 24 0 0 0 5.259-3.037l-2.981-5.147 1.8-2.11c1.35-1.603 2.419-3.403 3.094-5.371l.928-2.616h5.934c.253-1.997.253-4.05 0-6.047h-5.934l-.928-2.615a17.4 17.4 0 0 0-3.094-5.372l-1.8-2.11 2.953-5.175a23.3 23.3 0 0 0-5.259-3.037l-2.982 5.147-2.728-.507a16.5 16.5 0 0 0-6.215 0l-2.728.507-2.982-5.147c-1.856.76-3.628 1.8-5.231 3.037l2.981 5.147-1.8 2.11c-1.35 1.603-2.418 3.403-3.093 5.371l-.929 2.616h-5.934a24.2 24.2 0 0 0 0 6.047h5.934l.929 2.615a17.4 17.4 0 0 0 3.093 5.372l1.8 2.11-2.981 5.175a23.3 23.3 0 0 0 5.259 3.037l2.982-5.147 2.728.507c2.053.393 4.162.393 6.215 0zm2.587-16.368c0-4.978-4.022-9-9-9a8.99 8.99 0 0 0-9 9c0 4.978 4.022 9 9 9s9-4.05 9-9"/><animateTransform additive="sum" attributeName="transform" attributeType="xml" dur="2s" from="360 266.5 83.5" repeatCount="indefinite" to="0 266.5 83.5" type="rotate"/></g><g><path fill="#0073AA" d="M159.458 179.912v-8.745a50.2 50.2 0 0 1-10.386-5.839l-7.846 4.4c-2.796 1.549-6.306 1.024-8.474-1.273-6.905-7.278-10.986-13.699-14.438-24.381-.97-2.961.314-6.171 3.081-7.748l7.79-4.401a46.8 46.8 0 0 1 0-11.65l-7.79-4.373c-2.767-1.549-4.051-4.787-3.081-7.748 3.452-10.627 7.476-17.047 14.438-24.38 2.168-2.298 5.706-2.823 8.474-1.274l7.818 4.4c3.224-2.352 6.705-4.289 10.386-5.839v-8.745c0-3.127 2.225-5.811 5.364-6.475 9.901-2.159 17.69-2.408 29.018 0 3.138.664 5.392 3.376 5.392 6.475v8.745a51.3 51.3 0 0 1 10.386 5.812l7.818-4.373c2.797-1.55 6.335-1.024 8.503 1.273 7.675 8.192 11.841 15.47 14.866 24.491.97 2.906-.229 6.061-2.911 7.666l-7.133 4.373a46.8 46.8 0 0 1 0 11.65l8.018 4.843c2.454 1.494 3.709 4.317 3.081 7.057-1.968 8.662-9.415 17.877-15.949 24.685-2.169 2.269-5.678 2.767-8.446 1.217l-7.847-4.4c-3.224 2.352-6.705 4.29-10.386 5.839v8.745c0 3.1-2.225 5.812-5.364 6.476-10.7 2.297-18.518 2.269-29.075 0-3.081-.692-5.307-3.404-5.307-6.503m9.131-1.716a56.2 56.2 0 0 0 21.485 0v-13.201l3.053-1.051a41.5 41.5 0 0 0 13.096-7.334l2.454-2.047 11.813 6.614c4.793-5.286 9.701-11.43 12.012-18.044l-11.812-6.614.599-3.071a39.8 39.8 0 0 0 0-14.695l-.599-3.072 11.812-6.614c-2.311-6.614-7.219-12.785-12.012-18.043l-11.813 6.614-2.454-2.048a40.7 40.7 0 0 0-13.096-7.334l-3.053-1.051V74.032a56.1 56.1 0 0 0-21.485 0v13.2l-3.053 1.052a41.6 41.6 0 0 0-13.097 7.334l-2.454 2.047-11.812-6.614a52.8 52.8 0 0 0-10.757 18.044l11.812 6.614-.599 3.071a39.8 39.8 0 0 0 0 14.695l.599 3.072-11.812 6.614a52.6 52.6 0 0 0 10.757 18.043l11.812-6.614 2.454 2.048a40.7 40.7 0 0 0 13.097 7.334l3.053 1.051zm10.956-29.141c-13.039 0-23.653-10.294-23.653-22.941s10.614-22.941 23.653-22.941c13.04 0 23.654 10.294 23.654 22.941s-10.614 22.941-23.654 22.941m0-37.027c-7.989 0-14.523 6.31-14.523 14.086s6.506 14.086 14.523 14.086c7.99 0 14.524-6.31 14.524-14.086s-6.506-14.086-14.524-14.086"/><animateTransform additive="sum" attributeName="transform" attributeType="xml" dur="3s" from="0 180 126" repeatCount="indefinite" to="360 180 126" type="rotate"/></g></svg>