<svg xmlns="http://www.w3.org/2000/svg" width="32" height="32" fill="none"><circle cx="16" cy="16" r="16" fill="#F1F1F1"/><path fill="#DDD" d="M16 0C7.16 0 0 7.16 0 16s7.16 16 16 16 16-7.16 16-16S24.84 0 16 0m0 28.8C8.92 28.8 3.2 23.08 3.2 16S8.92 3.2 16 3.2 28.8 8.92 28.8 16 23.08 28.8 16 28.8"/><path fill="#007CBA" d="M30.32 18.96h-.16c-.88-.08-1.52-.88-1.44-1.76.04-.4.04-.8.04-1.2C28.8 8.96 23.04 3.2 16 3.2c-.88 0-1.6-.72-1.6-1.6S15.12 0 16 0c8.84 0 16 7.16 16 16 0 .52-.04 1-.08 1.52-.08.84-.76 1.44-1.6 1.44"/></svg>