<svg xmlns="http://www.w3.org/2000/svg" width="160" height="124" fill="none"><path fill="#64B450" d="M78 0C43.75 0 16 27.75 16 62s27.75 62 62 62 62-27.75 62-62S112.25 0 78 0m54 62c0 29.75-24.25 54-54 54S24 92 24 62C24 32.5 48 8 78 8c29.5 0 54 24.25 54 54"/><path fill="#64B450" stroke="#fff" stroke-width="4" d="m78.007 67.914-22.586-22.82-.081-.083-.09-.073c-1.02-.816-2.288-1.188-3.469-1.188-1.166 0-2.479.37-3.445 1.336l-7.25 7.25c-.967.966-1.336 2.279-1.336 3.445 0 1.181.372 2.449 1.188 3.468l.072.09.081.08 33.495 33.245.003.003c.963.962 2.208 1.52 3.536 1.52 1.33 0 2.576-.559 3.54-1.523l74.999-75c.967-.966 1.336-2.279 1.336-3.445 0-1.181-.372-2.449-1.188-3.468l-.08-.1-.093-.09-7.17-6.923c-1.897-2.228-5.232-1.954-7.133-.052z"/></svg>