<svg width="149" height="142" viewBox="0 0 149 142" fill="none" xmlns="http://www.w3.org/2000/svg">
<path d="M64 16C29.75 16 2 43.75 2 78C2 112.25 29.75 140 64 140C98.25 140 126 112.25 126 78C126 43.75 98.25 16 64 16ZM118 78C118 107.75 93.75 132 64 132C34.25 132 10 108 10 78C10 48.5 34 24 64 24C93.5 24 118 48.25 118 78Z" fill="#B4B9BE"/>
<path d="M129.75 21L64 86.75L40 62.5C38.75 61.5 36.75 61.5 35.75 62.5L28.5 69.75C27.5 70.75 27.5 72.75 28.5 74L62 107.25C63.25 108.5 65 108.5 66.25 107.25L141.25 32.25C142.25 31.25 142.25 29.25 141.25 28L134 21C133 19.75 131 19.75 129.75 21Z" fill="#64B450"/>
<path d="M64 86.75L61.157 89.5637L63.9853 92.4215L66.8284 89.5784L64 86.75ZM40 62.5L42.843 59.6863L42.6799 59.5214L42.4988 59.3765L40 62.5ZM28.5 74L25.3765 76.4988L25.5196 76.6776L25.6822 76.839L28.5 74ZM62 107.25L64.8284 104.422L64.8231 104.416L64.8178 104.411L62 107.25ZM141.25 28L144.373 25.5012L144.213 25.3007L144.028 25.1224L141.25 28ZM134 21L130.877 23.4988L131.037 23.6993L131.222 23.8776L134 21ZM126.922 18.1716L61.1716 83.9216L66.8284 89.5784L132.578 23.8284L126.922 18.1716ZM66.843 83.9363L42.843 59.6863L37.157 65.3137L61.157 89.5637L66.843 83.9363ZM42.4988 59.3765C41.0841 58.2448 39.3622 57.75 37.7812 57.75C36.2292 57.75 34.3546 58.2386 32.9216 59.6716L38.5784 65.3284C38.3555 65.5514 38.1405 65.6559 38.0135 65.7016C37.8879 65.7467 37.8085 65.75 37.7812 65.75C37.7628 65.75 37.6659 65.7552 37.5012 65.6235L42.4988 59.3765ZM32.9216 59.6716L25.6716 66.9216L31.3284 72.5784L38.5784 65.3284L32.9216 59.6716ZM25.6716 66.9216C24.2386 68.3546 23.75 70.2292 23.75 71.7812C23.75 73.3622 24.2448 75.0841 25.3765 76.4988L31.6235 71.5012C31.7552 71.6659 31.75 71.7628 31.75 71.7812C31.75 71.8085 31.7467 71.8879 31.7016 72.0135C31.6559 72.1405 31.5514 72.3555 31.3284 72.5784L25.6716 66.9216ZM25.6822 76.839L59.1822 110.089L64.8178 104.411L31.3178 71.161L25.6822 76.839ZM59.1716 110.078C60.4741 111.381 62.2156 112.188 64.125 112.188C66.0344 112.188 67.7759 111.381 69.0784 110.078L63.4216 104.422C63.4741 104.369 63.7156 104.188 64.125 104.188C64.5344 104.188 64.7759 104.369 64.8284 104.422L59.1716 110.078ZM69.0784 110.078L144.078 35.0784L138.422 29.4216L63.4216 104.422L69.0784 110.078ZM144.078 35.0784C145.511 33.6454 146 31.7708 146 30.2188C146 28.6378 145.505 26.9159 144.373 25.5012L138.127 30.4988C137.995 30.3341 138 30.2372 138 30.2188C138 30.1915 138.003 30.1121 138.048 29.9865C138.094 29.8595 138.199 29.6445 138.422 29.4216L144.078 35.0784ZM144.028 25.1224L136.778 18.1224L131.222 23.8776L138.472 30.8776L144.028 25.1224ZM137.123 18.5012C134.365 15.0528 129.537 15.5562 126.922 18.1716L132.578 23.8284C132.447 23.96 132.239 24.0625 131.969 24.0625C131.691 24.0625 131.228 23.9379 130.877 23.4988L137.123 18.5012Z" fill="white"/>
</svg>
