<svg xmlns="http://www.w3.org/2000/svg" width="124" height="124" fill="none"><path fill="#FFB900" d="M62 0C27.75 0 0 27.75 0 62s27.75 62 62 62 62-27.75 62-62S96.25 0 62 0m54 62c0 29.75-24.25 54-54 54S8 92 8 62C8 32.5 32 8 62 8c29.5 0 54 24.25 54 54"/><path fill="#FFB900" d="M71.75 82.625c0-5.156-4.219-9.375-9.375-9.375-5.273 0-9.375 4.219-9.375 9.375C53 87.898 57.102 92 62.375 92c5.156 0 9.375-4.102 9.375-9.375M54.055 35.047l1.523 31.875c.117 1.406 1.406 2.578 2.813 2.578h7.851c1.406 0 2.695-1.172 2.813-2.578l1.523-31.875c.117-1.64-1.172-3.047-2.812-3.047H56.867c-1.64 0-2.93 1.406-2.812 3.047"/></svg>