<svg xmlns="http://www.w3.org/2000/svg" width="55" height="52" fill="none"><path fill="#999" d="M54.125 5.375q.125-.375.125-.625.124-1 0-1.75a3.37 3.37 0 0 0-1.125-1.875q-1-1.125-2.5-1-.875 0-1.375.125-1.375.75-5.875 3.625-5.5 3.5-10 6.875-5.876 4.375-8.625 7.375-1.5 1.625-2.875 4.625-1.375 3.25-1.75 6-.375 3.25 1 4.75 1.5 1.5 4.75 1.25 2.876-.25 6-1.625 3.25-1.375 4.625-2.75 3-3 7.375-9 3.375-4.624 6.75-10.125 2.875-4.5 3.5-5.875M0 50.5q2.75-1.75 4.25-4.25.875-1.375 1.875-4.25.75-2.25 1.375-3.375a10.9 10.9 0 0 1 2.875-3q2.25-1.625 5-1.375 2.75.124 4.75 2.25 1.125 1.125 1.5 3.25t-.125 4.375q-.375 2.125-1.875 3.5-3.5 3.375-9.125 4-5 .5-10.5-1.125"/></svg>