<svg xmlns="http://www.w3.org/2000/svg" width="16" height="16" fill="none"><path fill="#999" d="M8 1.25c3.688 0 6.75 3.031 6.75 6.75 0 3.75-3.031 6.75-6.75 6.75-3.75 0-6.75-3-6.75-6.75 0-3.719 3-6.75 6.75-6.75m0-1C3.719.25.25 3.75.25 8A7.75 7.75 0 0 0 8 15.75c4.25 0 7.75-3.469 7.75-7.75 0-4.25-3.5-7.75-7.75-7.75M6.875 11a.38.38 0 0 0-.375.375v.25a.36.36 0 0 0 .375.375h2.25a.38.38 0 0 0 .375-.375v-.25A.4.4 0 0 0 9.125 11H8.75V6.625a.4.4 0 0 0-.375-.375h-1.5a.38.38 0 0 0-.375.375v.25a.36.36 0 0 0 .375.375h.375V11zM8 3.5c-.562 0-1 .469-1 1 0 .563.438 1 1 1 .531 0 1-.437 1-1 0-.531-.469-1-1-1"/></svg>