<svg width="14" height="17" viewBox="0 0 14 17" fill="none" xmlns="http://www.w3.org/2000/svg">
<path d="M11.9375 7.375H11.7812V5.90625C11.7812 3.36058 9.67067 1.25 7.125 1.25C4.54985 1.25 2.46875 3.36272 2.46875 5.90625V7.375H2.3125C1.29132 7.375 0.5 8.20723 0.5 9.1875V14.4375C0.5 15.4519 1.29808 16.25 2.3125 16.25H11.9375C12.9178 16.25 13.75 15.4587 13.75 14.4375V9.1875C13.75 8.20042 12.9246 7.375 11.9375 7.375ZM5.65625 7.375V5.90625C5.65625 5.11146 6.31189 4.4375 7.125 4.4375C7.91526 4.4375 8.59375 5.11599 8.59375 5.90625V7.375H5.65625Z" fill="#23282D" stroke="white"/>
</svg>
