<svg xmlns="http://www.w3.org/2000/svg" width="65" height="64" fill="none"><path fill="#999" d="m44 16.375-9.875 9.875 5.75 5.75 9.875-9.875q.75-.75.5-2.125-.25-1.5-1.5-2.625-1.125-1.25-2.5-1.5-1.25-.25-2.25.5M45 1Q43.624.125 28.5 12.125q-7.625 6-14.875 12.25l-3-1.75Q7.25 20.75 4.875 19.75q-3.375-1.5-4-.875-1 .75 5.75 8.5a149 149 0 0 0 7 7.5l8.625-8.625Q32 16.5 37.875 10.125 46.001 1.375 45 1m17.625 29.75q-1.25-1.25-2.75-1.5-1.375-.25-2.125.5l-9.875 9.875 5.75 5.875L63.5 35.25q.75-.5.5-1.875-.25-1.5-1.375-2.625m-37.5-3.25q-1.5 1.624-2.625 5.625-.875 3.5-.875 6.5v12.25l-3.875 3.75q-1.375 1.5-1.375 3.5 0 1.875 1.375 3.375 1.5 1.375 3.375 1.375t3.375-1.5l3.875-3.875H40.5q3.125 0 6.5-.875 3.75-1 5.375-2.625l3.75-2.5L27.75 24z"/></svg>