<svg xmlns="http://www.w3.org/2000/svg" width="20" height="20" fill="none"><path fill="#666" d="M10 12.969c-.625 0-1.094.508-1.094 1.094 0 .624.469 1.093 1.094 1.093.586 0 1.094-.469 1.094-1.094 0-.585-.508-1.093-1.094-1.093m.273-.938a.45.45 0 0 0 .47-.469c0-1.68 3.046-1.562 3.046-4.18 0-1.991-1.797-3.163-3.828-3.163-1.758 0-2.734.703-3.555 1.758-.156.234-.117.507.117.664l.508.39a.49.49 0 0 0 .625-.117c.586-.742 1.172-1.133 2.305-1.133 1.562 0 2.266.82 2.266 1.602 0 1.68-3.047 1.445-3.047 4.18 0 .273.234.468.468.468zM10 1.25c4.61 0 8.438 3.79 8.438 8.438A8.427 8.427 0 0 1 10 18.124a8.4 8.4 0 0 1-8.437-8.437A8.427 8.427 0 0 1 10 1.25M10 0C4.648 0 .313 4.375.313 9.688A9.686 9.686 0 0 0 10 19.374c5.313 0 9.688-4.336 9.688-9.687C19.688 4.375 15.313 0 10 0"/></svg>