<svg xmlns="http://www.w3.org/2000/svg" width="56" height="49" fill="none"><path fill="#999" d="M55.25 45.25V3.625q0-1.375-1-2.25-.875-1-2.125-1h-48q-1.375 0-2.375 1-.875.875-.875 2.25V45.25q0 1.25.875 2.25 1 .875 2.375.875h48q1.25 0 2.125-.875 1-1 1-2.25m-48-38.5h41.625v12.875H7.25zM10.5 10v6.375h9.625V10zm12.75 0v6.375h9.625V10zm12.875 0v6.375h9.625V10zM8.875 26q.75 0 1.125.5.5.375.5 1.125 0 .626-.5 1.125-.375.5-1.125.5-.625 0-1.125-.5t-.5-1.125q0-.75.5-1.125.5-.5 1.125-.5m4.875 0H26.5v3.25H13.75zm19.125 0h16v16h-16zm-24 6.375q.75 0 1.125.5.5.5.5 1.125 0 .626-.5 1.125-.375.5-1.125.5-.625 0-1.125-.5T7.25 34t.5-1.125 1.125-.5m4.875 0H26.5v3.25H13.75zm22.375 0v6.375h9.625v-6.375zM8.875 38.75q.75 0 1.125.5.5.5.5 1.25 0 .626-.5 1.125Q9.625 42 8.875 42q-.625 0-1.125-.375-.5-.5-.5-1.125 0-.75.5-1.25t1.125-.5m4.875 0H26.5V42H13.75z"/></svg>